<svg width="101" height="94" viewBox="0 0 101 94" fill="none" xmlns="http://www.w3.org/2000/svg">
<path d="M99.1973 16.0273L86.2109 0.558594C85.9141 0.205078 85.4766 0 85.0137 0H15.9863C15.5254 0 15.0859 0.205078 14.7891 0.558594L1.80273 16.0273C0.998047 16.8457 0.5 17.9668 0.5 19.2012V88.5996C0.5 91.0977 2.53516 93.1309 5.03516 93.1309H95.9648C98.4648 93.1309 100.5 91.0977 100.5 88.5996V19.2012C100.5 17.9668 100.002 16.8457 99.1973 16.0273Z" fill="#FFC347"/>
<path d="M35.3828 61.5605H65.6231C66.4863 61.5605 67.1856 60.8613 67.1856 59.998C67.1856 59.1348 66.4863 58.4355 65.6231 58.4355H35.3828C34.5195 58.4355 33.8203 59.1348 33.8203 59.998C33.8203 60.8613 34.5195 61.5605 35.3828 61.5605Z" fill="#E8A843"/>
<path d="M65.6211 66.6562H35.3828C34.5195 66.6562 33.8203 67.3555 33.8203 68.2188C33.8203 69.082 34.5195 69.7812 35.3828 69.7812H65.6231C66.4863 69.7812 67.1856 69.082 67.1856 68.2188C67.1856 67.3555 66.4844 66.6562 65.6211 66.6562Z" fill="#E8A843"/>
<path d="M65.6211 74.8789H35.3828C34.5195 74.8789 33.8203 75.5781 33.8203 76.4414C33.8203 77.3047 34.5195 78.0039 35.3828 78.0039H65.6231C66.4863 78.0039 67.1856 77.3047 67.1856 76.4414C67.1856 75.5781 66.4844 74.8789 65.6211 74.8789Z" fill="#E8A843"/>
<path d="M5.0332 14.6699H95.9629C97.2266 14.6699 98.373 15.1895 99.1953 16.0273L86.209 0.558594C85.9121 0.205078 85.4746 0 85.0117 0H15.9844C15.5234 0 15.084 0.205078 14.7871 0.558594L1.80078 16.0273C2.625 15.1895 3.76953 14.6699 5.0332 14.6699Z" fill="#F2B344"/>
<path d="M7.73828 13.8398L19.3574 0H15.9844C15.5234 0 15.084 0.205078 14.7871 0.558594L1.80078 16.0273C2.625 15.1895 3.76953 14.6699 5.0332 14.6699H7.0918C7.27539 14.3691 7.49219 14.0898 7.73828 13.8398Z" fill="#E8A843"/>
<path d="M10.9727 90.9453C8.47266 90.9453 6.4375 88.9121 6.4375 86.4141V17.0137C6.4375 16.1562 6.67773 15.3535 7.09375 14.6699H5.03516C2.53516 14.6699 0.5 16.7031 0.5 19.2012V88.5996C0.5 91.0977 2.53516 93.1309 5.03516 93.1309H95.9648C97.6074 93.1309 99.0488 92.2539 99.8457 90.9434H10.9727V90.9453Z" fill="#F7B746"/>
<path d="M40.6484 0H60.3496V14.6699H40.6484V0Z" fill="#D8944A"/>
<path d="M40.6484 14.6699V36.8613C40.6484 37.4785 41.0117 38.0391 41.5762 38.2891C42.1406 38.541 42.7988 38.4355 43.2578 38.0215L50.498 31.4902L57.7402 38.0215C58.0332 38.2852 58.4082 38.4238 58.7871 38.4238C59.002 38.4238 59.2188 38.3789 59.4219 38.2891C59.9863 38.0391 60.3496 37.4785 60.3496 36.8613V14.6699H40.6484Z" fill="#EFA852"/>
</svg>
