<svg width="896" height="897" viewBox="0 0 896 897" fill="none" xmlns="http://www.w3.org/2000/svg">
<path d="M430.562 0.779297H465.6C466.476 1.30477 467.255 2.25937 468.088 2.26812C471.416 2.32067 474.788 1.68135 478.082 2.00539C490.345 3.21397 502.696 4.41379 514.933 6.13031C551.912 11.3553 588.035 21.4563 622.359 36.1696C689.632 64.8952 746.664 107.441 793.457 163.806C822.015 198.349 845.231 236.976 862.333 278.402C883.452 329.197 893.867 382.304 895.908 437.111C896.284 447.489 895.032 457.91 894.673 468.315C894.471 473.525 894.673 478.754 894.349 483.947C892.613 510.378 888.28 536.573 881.411 562.154C860.161 642.446 819.814 711.633 760.373 769.714C718.529 810.587 670.387 841.835 616.271 863.966C566.009 884.52 513.575 894.723 459.477 896.589C445.746 896.98 432.003 896.641 418.308 895.573C404.108 894.539 389.927 892.788 375.859 890.625C328.821 883.312 283.319 868.261 241.2 846.082C140.716 793.633 63.7536 705.173 25.7177 598.412C15.106 568.714 7.80032 537.937 3.93299 506.639C2.43513 494.57 2.32125 482.318 1.46283 470.198C1.36647 468.875 0.508048 467.57 0 466.335V431.304C0.508048 430.314 1.42779 429.342 1.45407 428.344C1.51538 425.016 0.840907 421.644 1.20004 418.36C2.72419 404.207 4.14322 390.029 6.28053 375.964C11.6864 340.93 21.5233 306.725 35.5546 274.172C65.109 205.09 109.149 146.93 167.673 99.6899C207.101 67.9158 251.66 43.0966 299.433 26.2995C328.865 15.879 359.334 8.65886 390.312 4.7641C402.234 3.25776 414.322 3.19645 426.331 2.34694C427.768 2.24185 429.152 1.32228 430.562 0.779297Z" fill="#C92127"/>
<path fill-rule="evenodd" clip-rule="evenodd" d="M336.04 161.14L279.172 131.554C278.318 134.141 277.466 136.668 276.626 139.159L276.623 139.167L276.622 139.172C274.836 144.467 273.107 149.596 271.535 154.781C262.295 185.181 254.982 215.861 255.288 247.986C255.49 269.479 262.146 288.484 274.644 305.65C291.303 328.536 312.112 347.094 335.374 362.964C351.955 374.276 369.061 384.867 386.165 395.457L386.172 395.461L386.178 395.465C393.066 399.729 399.954 403.994 406.807 408.306C412.132 411.658 417.508 414.935 423.101 418.345C425.603 419.87 428.148 421.422 430.753 423.019C430.634 422.406 430.541 421.889 430.46 421.435L430.46 421.435C430.309 420.586 430.197 419.96 430.026 419.35C427.284 409.695 424.522 400.044 421.761 390.394L421.755 390.376L421.754 390.371C414.585 365.319 407.416 340.266 400.589 315.127C398.566 307.63 396.315 303.47 387.452 303.102C376.512 302.655 368.56 291.734 370.382 281.267C371.739 273.411 377.791 264.723 390.421 266.019C405.809 267.605 415.697 280.961 405.187 295.999C404.096 297.592 402.909 299.141 401.739 300.668L401.738 300.669C401.172 301.408 400.609 302.143 400.064 302.874L460.811 409.908C461.015 409.24 461.197 408.673 461.359 408.171L461.362 408.16L461.363 408.159L461.363 408.158L461.363 408.158C461.666 407.218 461.896 406.503 462.055 405.774C463.597 398.672 465.209 391.583 466.821 384.493C470.645 367.672 474.469 350.853 477.365 333.878C480.728 314.146 482.523 294.072 483.723 274.068C484.599 259.451 483.828 244.676 482.952 230.023C482.249 216.499 479.403 203.172 474.518 190.541C466.933 171.404 454.532 155.955 438.215 143.448C412.816 123.978 384.281 110.64 354.039 99.5605L336.04 161.14ZM97.3755 527.96L142.428 482.996L88.626 446.982C91.4395 443.721 94.2099 440.449 96.97 437.189C103.017 430.048 109.014 422.965 115.304 416.188C132.05 398.225 150.153 381.777 172.338 370.645C189.78 361.723 209.424 358.02 228.917 359.978C262.75 363.209 294.175 374.525 324.935 388.179C356.211 402.07 385.849 418.956 414.83 437.068C415.553 437.595 416.249 438.159 416.915 438.758L297.066 464.367C296.214 463.341 295.387 462.302 294.564 461.268C292.576 458.771 290.61 456.301 288.369 454.102C281.318 447.192 272.236 447.183 264.861 453.699C256.296 461.267 254.561 473.248 260.894 481.016C262.7 483.259 264.993 485.062 267.599 486.286C270.205 487.511 273.056 488.126 275.936 488.085C278.815 488.043 281.647 487.347 284.217 486.048C286.787 484.749 289.028 482.881 290.768 480.587C290.912 480.396 291.059 480.205 291.206 480.012C292.412 478.435 293.672 476.786 294.07 474.991C295.559 468.212 299.658 467.511 305.929 467.73C333.742 468.709 361.564 469.399 389.389 470.089L389.407 470.089L389.426 470.089L389.444 470.09C399.453 470.338 409.463 470.586 419.472 470.848C419.528 470.848 419.585 470.905 419.73 471.052C419.834 471.156 419.982 471.306 420.208 471.514C418.805 472.746 417.412 473.977 416.023 475.205L416.02 475.207C413.353 477.565 410.699 479.91 408.016 482.225C401.728 487.644 395.474 493.105 389.219 498.567L389.21 498.574L389.21 498.575C374.724 511.223 360.238 523.872 345.333 536C320.091 556.547 292.897 574.046 261.813 584.871C235.354 594.094 209.85 591.002 184.538 580.492C153.394 567.6 125.49 549.339 98.6192 529.318C98.1604 528.908 97.7438 528.453 97.3755 527.96ZM435.062 487.795C434.741 490.237 434.43 492.61 434.125 494.933C433.408 500.402 432.726 505.6 432.032 510.794C429.509 529.525 426.984 548.259 424.456 566.996C423.892 571.204 423.341 575.414 422.789 579.624L422.787 579.639L422.785 579.655L422.785 579.655L422.785 579.656L422.785 579.656C421.563 588.981 420.341 598.307 418.99 607.616C418.815 608.799 417.116 610.121 415.82 610.699C414.377 611.347 412.863 611.847 411.35 612.346C409.548 612.941 407.748 613.535 406.072 614.378C396.175 619.335 393.337 630.029 399.197 639.523C404.863 648.719 413.28 652.467 421.916 649.656C434.72 645.487 439.056 629.854 430.42 619.002C428.043 616.011 425.608 613.037 422.598 609.362L422.345 609.053L466.828 495.196C467.813 497.724 468.759 500.14 469.677 502.483L469.68 502.49C471.416 506.921 473.052 511.095 474.65 515.287C477.646 523.168 480.683 531.036 483.719 538.904L483.72 538.906L483.72 538.907L483.721 538.909L483.722 538.912C491.025 557.834 498.328 576.757 505.076 595.863C513.676 620.438 518.871 646.075 520.517 672.06C522.645 704.185 512.1 731.615 490.353 755.263C471.146 776.125 436.008 805.351 411.257 819.89C410.942 819.221 410.627 818.553 410.312 817.884C409.839 816.878 409.366 815.873 408.893 814.867C408.321 813.652 407.75 812.437 407.179 811.222L406.859 810.542C403.839 804.117 400.825 797.704 397.786 791.303C393.631 782.548 389.394 773.683 384.979 764.445L383.843 762.068L358.33 780.959L332.125 800.341C330.781 798.13 329.435 795.96 328.101 793.809L328.098 793.804L328.097 793.803L328.093 793.796C325.249 789.211 322.461 784.715 319.864 780.11C307.085 757.338 296.12 733.928 290.199 708.292C284.068 681.589 287.65 656.4 300.175 632.253C315.572 602.589 336.855 577.409 360.003 553.666C382.319 530.772 406.545 510.015 431.62 490.212C432.113 489.845 432.622 489.494 433.249 489.061C433.757 488.71 434.344 488.305 435.062 487.795ZM478.658 402.413L478.669 402.372L478.671 402.365C480.424 395.395 482.103 388.723 483.802 382.057C485.529 375.284 487.208 368.498 488.887 361.713C492.853 345.684 496.818 329.658 501.415 313.813C509.175 287.109 520.088 261.71 535.135 238.063C551.67 212.174 575.108 197.092 604.763 190.436C635.251 183.596 666.072 182.116 697.173 182.597C699.251 182.632 701.33 182.621 703.605 182.61C704.819 182.604 706.09 182.597 707.446 182.597C703.768 203.783 700.177 224.444 696.568 245.201H760.504C760.397 247.12 760.342 249.079 760.286 251.061C760.163 255.41 760.037 259.865 759.357 264.233C758.892 267.219 758.436 270.208 757.979 273.197L757.978 273.2C755.584 288.873 753.187 304.557 749.679 319.988C745.545 338.187 738.293 355.31 726.539 370.242C713.945 386.252 697.488 396.885 679.174 405.039C648.835 418.544 616.99 426.689 584.208 431.173C565.359 433.722 546.418 435.626 527.478 437.531L527.476 437.531L527.473 437.531C520.382 438.244 513.291 438.957 506.206 439.704C504.443 439.886 502.655 439.831 500.662 439.771H500.661C499.583 439.738 498.446 439.704 497.22 439.704C499.222 437.532 501.181 435.398 503.117 433.291C506.861 429.213 510.515 425.235 514.211 421.268C535.418 398.403 556.604 375.521 577.77 352.621C579.977 350.212 581.527 349.59 584.689 351.035C588.02 352.456 591.581 353.257 595.199 353.4C604.413 353.934 610.404 349.897 612.62 340.946C615.93 327.572 609.528 314.557 594.42 314.768C584.146 314.908 575.151 325.234 576.141 335.744C576.185 336.203 576.206 336.674 576.226 337.145V337.147C576.285 338.475 576.343 339.808 576.912 340.893C579.539 346.148 577.113 348.636 572.804 351.447C548.991 366.984 525.274 382.661 501.557 398.338C493.976 403.35 486.394 408.361 478.81 413.368C478.111 413.946 477.346 414.429 475.757 415.43L475.306 415.715C476.467 411.122 477.577 406.711 478.658 402.413ZM592.108 535.668L481.078 484.047C481.283 484.742 481.44 485.301 481.573 485.775C481.798 486.577 481.955 487.138 482.164 487.716C493.962 518.055 506.723 547.955 522.356 576.542C538.401 605.882 556.365 633.865 580.678 657.24C601.12 676.85 625.556 686.773 653.889 687.728C674.712 688.375 695.538 686.576 715.942 682.368C723.255 680.886 730.539 679.14 737.932 677.367C741.376 676.541 744.843 675.71 748.347 674.897C743.246 660.277 738.273 646.013 733.286 631.713C731.244 625.856 729.2 619.994 727.144 614.098L790.449 605.112C789.748 602.712 789.144 600.654 788.539 598.604C779.422 567.609 768.054 537.586 751.553 509.638C736.454 484.047 715.495 465.97 686.356 458.77C672.588 455.363 658.531 452.333 644.447 451.238C624.982 449.838 605.457 449.441 585.95 450.047C572 450.403 558.071 451.502 544.143 452.601C538.186 453.071 532.229 453.541 526.271 453.953C520.261 454.37 514.254 454.806 507.958 455.263C504.601 455.506 501.162 455.756 497.596 456.012C502.732 460.118 507.532 463.942 512.218 467.674C514.628 469.594 517.007 471.49 519.387 473.388C543.408 492.574 567.389 511.784 591.328 531.017C593.36 532.655 594.796 533.023 597.328 531.376C600.849 529.125 604.686 527.413 608.713 526.296C619.364 523.371 633.771 533.811 630.995 547.964C629.085 557.686 619.591 564.211 608.372 563.493C600.726 562.993 594.98 558.544 593.483 551.073C592.838 547.842 592.652 544.519 592.454 540.964C592.359 539.257 592.261 537.497 592.108 535.668Z" fill="white"/>
</svg>
